<svg xmlns="http://www.w3.org/2000/svg" viewBox="0 0 480 480" role="img" aria-label="A Lua desenhada como uma rede de pontos e linhas">
<defs>
<radialGradient id="halo" cx="50%" cy="50%" r="50%"><stop offset="0%" stop-color="#F2A43A" stop-opacity="0.22"></stop><stop offset="60%" stop-color="#F2A43A" stop-opacity="0.06"></stop><stop offset="100%" stop-color="#F2A43A" stop-opacity="0"></stop></radialGradient>
</defs>
<circle cx="240" cy="240" r="236" fill="url(#halo)"></circle>
<g>
<path d="M154.6 281.1L106.7 259.7M154.6 281.1L201.1 340.4M154.6 281.1L217.9 281.8M154.6 281.1L191.7 220.7M106.7 259.7L99.2 316.7M106.7 259.7L139.8 189.3M106.7 259.7L88.5 200.1M106.7 259.7L59.4 246.4M99.2 316.7L148.3 357.7M99.2 316.7L63.2 309.1M99.2 316.7L97.8 366.4M148.3 357.7L201.1 340.4M148.3 357.7L152.2 400.4M148.3 357.7L210.7 401.7M201.1 340.4L217.9 281.8M201.1 340.4L257.9 370.8M217.9 281.8L191.7 220.7M217.9 281.8L282.8 316.0M217.9 281.8L280.5 250.8M191.7 220.7L139.8 189.3M191.7 220.7L252.4 189.8M191.7 220.7L205.8 145.8M139.8 189.3L88.5 200.1M139.8 189.3L205.8 145.8M139.8 189.3L150.7 127.5M88.5 200.1L59.4 246.4M88.5 200.1L98.8 137.6M88.5 200.1L60.0 173.5M59.4 246.4L63.2 309.1M59.4 246.4L60.0 173.5M59.4 246.4L41.5 228.2M63.2 309.1L97.8 366.4M63.2 309.1L46.8 291.5M97.8 366.4L152.2 400.4M97.8 366.4L74.7 352.4M97.8 366.4L120.7 400.5M152.2 400.4L210.7 401.7M152.2 400.4L177.5 428.3M210.7 401.7L257.9 370.8M210.7 401.7L236.4 431.4M257.9 370.8L282.8 316.0M257.9 370.8L288.6 409.6M257.9 370.8L326.7 366.1M282.8 316.0L280.5 250.8M282.8 316.0L345.5 307.5M280.5 250.8L252.4 189.8M280.5 250.8L343.0 242.0M252.4 189.8L205.8 145.8M252.4 189.8L319.8 178.8M252.4 189.8L279.6 126.4M205.8 145.8L150.7 127.5M205.8 145.8L279.6 126.4M205.8 145.8L228.2 91.7M150.7 127.5L98.8 137.6M150.7 127.5L172.8 78.9M98.8 137.6L60.0 173.5M98.8 137.6L120.8 89.5M60.0 173.5L41.5 228.2M60.0 173.5L79.3 121.8M41.5 228.2L46.8 291.5M120.7 400.5L177.5 428.3M177.5 428.3L236.4 431.4M236.4 431.4L288.6 409.6M236.4 431.4L255.8 439.2M288.6 409.6L326.7 366.1M288.6 409.6L311.0 425.0M288.6 409.6L356.0 390.1M326.7 366.1L345.5 307.5M326.7 366.1L356.0 390.1M326.7 366.1L385.7 338.7M345.5 307.5L343.0 242.0M345.5 307.5L385.7 338.7M345.5 307.5L396.9 276.5M343.0 242.0L319.8 178.8M343.0 242.0L388.7 210.7M319.8 178.8L279.6 126.4M319.8 178.8L362.2 148.8M279.6 126.4L228.2 91.7M279.6 126.4L320.7 97.7M228.2 91.7L172.8 78.9M228.2 91.7L269.2 63.1M172.8 78.9L120.8 89.5M172.8 78.9L213.8 49.0M120.8 89.5L79.3 121.8M120.8 89.5L161.0 56.7M255.8 439.2L311.0 425.0M311.0 425.0L356.0 390.1M311.0 425.0L370.1 391.7M356.0 390.1L385.7 338.7M356.0 390.1L370.1 391.7M356.0 390.1L407.1 347.0M385.7 338.7L396.9 276.5M385.7 338.7L407.1 347.0M385.7 338.7L426.7 288.7M396.9 276.5L388.7 210.7M396.9 276.5L426.7 288.7M396.9 276.5L426.7 223.5M388.7 210.7L362.2 148.8M388.7 210.7L426.7 223.5M388.7 210.7L407.2 159.2M362.2 148.8L320.7 97.7M362.2 148.8L407.2 159.2M362.2 148.8L370.9 103.3M320.7 97.7L269.2 63.1M320.7 97.7L370.9 103.3M269.2 63.1L213.8 49.0M269.2 63.1L322.1 62.6M213.8 49.0L161.0 56.7M213.8 49.0L267.2 42.1M370.1 391.7L407.1 347.0M407.1 347.0L426.7 288.7M426.7 288.7L426.7 223.5M426.7 288.7L436.3 275.8M426.7 223.5L407.2 159.2M426.7 223.5L437.8 211.0M407.2 159.2L370.9 103.3M407.2 159.2L416.9 147.1M370.9 103.3L322.1 62.6M370.9 103.3L377.1 94.5M322.1 62.6L267.2 42.1M322.1 62.6L377.1 94.5M322.1 62.6L325.0 61.8M437.8 211.0L416.9 147.1M416.9 147.1L377.1 94.5" stroke="#FFFFFF" stroke-opacity="0.10" stroke-width="0.8" fill="none"></path>
<path d="M154.6 281.1m-1.30 0a1.30 1.30 0 1 0 2.59 0a1.30 1.30 0 1 0 -2.59 0M106.7 259.7m-1.41 0a1.41 1.41 0 1 0 2.82 0a1.41 1.41 0 1 0 -2.82 0M99.2 316.7m-1.52 0a1.52 1.52 0 1 0 3.04 0a1.52 1.52 0 1 0 -3.04 0M148.3 357.7m-1.47 0a1.47 1.47 0 1 0 2.93 0a1.47 1.47 0 1 0 -2.93 0M201.1 340.4m-1.33 0a1.33 1.33 0 1 0 2.65 0a1.33 1.33 0 1 0 -2.65 0M217.9 281.8m-1.22 0a1.22 1.22 0 1 0 2.45 0a1.22 1.22 0 1 0 -2.45 0M191.7 220.7m-1.23 0a1.23 1.23 0 1 0 2.46 0a1.23 1.23 0 1 0 -2.46 0M139.8 189.3m-1.34 0a1.34 1.34 0 1 0 2.68 0a1.34 1.34 0 1 0 -2.68 0M88.5 200.1m-1.50 0a1.50 1.50 0 1 0 3.01 0a1.50 1.50 0 1 0 -3.01 0M59.4 246.4m-1.66 0a1.66 1.66 0 1 0 3.31 0a1.66 1.66 0 1 0 -3.31 0M63.2 309.1m-1.75 0a1.75 1.75 0 1 0 3.50 0a1.75 1.75 0 1 0 -3.50 0M97.8 366.4m-1.75 0a1.75 1.75 0 1 0 3.51 0a1.75 1.75 0 1 0 -3.51 0M152.2 400.4m-1.68 0a1.68 1.68 0 1 0 3.35 0a1.68 1.68 0 1 0 -3.35 0M210.7 401.7m-1.54 0a1.54 1.54 0 1 0 3.09 0a1.54 1.54 0 1 0 -3.09 0M257.9 370.8m-1.40 0a1.40 1.40 0 1 0 2.80 0a1.40 1.40 0 1 0 -2.80 0M282.8 316.0m-1.28 0a1.28 1.28 0 1 0 2.56 0a1.28 1.28 0 1 0 -2.56 0M280.5 250.8m-1.22 0a1.22 1.22 0 1 0 2.44 0a1.22 1.22 0 1 0 -2.44 0M252.4 189.8m-1.23 0a1.23 1.23 0 1 0 2.45 0a1.23 1.23 0 1 0 -2.45 0M205.8 145.8m-1.31 0a1.31 1.31 0 1 0 2.62 0a1.31 1.31 0 1 0 -2.62 0M150.7 127.5m-1.44 0a1.44 1.44 0 1 0 2.89 0a1.44 1.44 0 1 0 -2.89 0M98.8 137.6m-1.61 0a1.61 1.61 0 1 0 3.22 0a1.61 1.61 0 1 0 -3.22 0M60.0 173.5m-1.77 0a1.77 1.77 0 1 0 3.55 0a1.77 1.77 0 1 0 -3.55 0M41.5 228.2m-1.91 0a1.91 1.91 0 1 0 3.83 0a1.91 1.91 0 1 0 -3.83 0M120.7 400.5m-1.99 0a1.99 1.99 0 1 0 3.98 0a1.99 1.99 0 1 0 -3.98 0M177.5 428.3m-1.90 0a1.90 1.90 0 1 0 3.80 0a1.90 1.90 0 1 0 -3.80 0M236.4 431.4m-1.77 0a1.77 1.77 0 1 0 3.54 0a1.77 1.77 0 1 0 -3.54 0M288.6 409.6m-1.62 0a1.62 1.62 0 1 0 3.25 0a1.62 1.62 0 1 0 -3.25 0M326.7 366.1m-1.48 0a1.48 1.48 0 1 0 2.97 0a1.48 1.48 0 1 0 -2.97 0M345.5 307.5m-1.38 0a1.38 1.38 0 1 0 2.75 0a1.38 1.38 0 1 0 -2.75 0M343.0 242.0m-1.31 0a1.31 1.31 0 1 0 2.63 0a1.31 1.31 0 1 0 -2.63 0M319.8 178.8m-1.31 0a1.31 1.31 0 1 0 2.62 0a1.31 1.31 0 1 0 -2.62 0M279.6 126.4m-1.36 0a1.36 1.36 0 1 0 2.72 0a1.36 1.36 0 1 0 -2.72 0M228.2 91.7m-1.47 0a1.47 1.47 0 1 0 2.93 0a1.47 1.47 0 1 0 -2.93 0M172.8 78.9m-1.61 0a1.61 1.61 0 1 0 3.22 0a1.61 1.61 0 1 0 -3.22 0M120.8 89.5m-1.78 0a1.78 1.78 0 1 0 3.55 0a1.78 1.78 0 1 0 -3.55 0M79.3 121.8m-1.94 0a1.94 1.94 0 1 0 3.89 0a1.94 1.94 0 1 0 -3.89 0M311.0 425.0m-1.89 0a1.89 1.89 0 1 0 3.78 0a1.89 1.89 0 1 0 -3.78 0M356.0 390.1m-1.75 0a1.75 1.75 0 1 0 3.49 0a1.75 1.75 0 1 0 -3.49 0M385.7 338.7m-1.62 0a1.62 1.62 0 1 0 3.24 0a1.62 1.62 0 1 0 -3.24 0M396.9 276.5m-1.53 0a1.53 1.53 0 1 0 3.05 0a1.53 1.53 0 1 0 -3.05 0M388.7 210.7m-1.48 0a1.48 1.48 0 1 0 2.96 0a1.48 1.48 0 1 0 -2.96 0M362.2 148.8m-1.48 0a1.48 1.48 0 1 0 2.96 0a1.48 1.48 0 1 0 -2.96 0M320.7 97.7m-1.54 0a1.54 1.54 0 1 0 3.08 0a1.54 1.54 0 1 0 -3.08 0M269.2 63.1m-1.65 0a1.65 1.65 0 1 0 3.29 0a1.65 1.65 0 1 0 -3.29 0M213.8 49.0m-1.79 0a1.79 1.79 0 1 0 3.58 0a1.79 1.79 0 1 0 -3.58 0M161.0 56.7m-1.95 0a1.95 1.95 0 1 0 3.90 0a1.95 1.95 0 1 0 -3.90 0M407.1 347.0m-1.90 0a1.90 1.90 0 1 0 3.80 0a1.90 1.90 0 1 0 -3.80 0M426.7 288.7m-1.79 0a1.79 1.79 0 1 0 3.58 0a1.79 1.79 0 1 0 -3.58 0M426.7 223.5m-1.72 0a1.72 1.72 0 1 0 3.44 0a1.72 1.72 0 1 0 -3.44 0M407.2 159.2m-1.70 0a1.70 1.70 0 1 0 3.41 0a1.70 1.70 0 1 0 -3.41 0M370.9 103.3m-1.74 0a1.74 1.74 0 1 0 3.48 0a1.74 1.74 0 1 0 -3.48 0M322.1 62.6m-1.83 0a1.83 1.83 0 1 0 3.66 0a1.83 1.83 0 1 0 -3.66 0M267.2 42.1m-1.96 0a1.96 1.96 0 1 0 3.93 0a1.96 1.96 0 1 0 -3.93 0M437.8 211.0m-1.98 0a1.98 1.98 0 1 0 3.96 0a1.98 1.98 0 1 0 -3.96 0M416.9 147.1m-1.97 0a1.97 1.97 0 1 0 3.94 0a1.97 1.97 0 1 0 -3.94 0" fill="#FFFFFF" fill-opacity="0.25"></path>
<path d="M41.5 228.2L53.6 171.4M41.5 228.2L47.1 232.0M46.8 291.5L74.7 352.4M46.8 291.5L47.1 232.0M46.8 291.5L60.8 295.8M74.7 352.4L120.7 400.5M74.7 352.4L93.1 354.8M120.7 400.5L140.2 401.8M177.5 428.3L196.6 431.1M79.3 121.8L53.6 171.4M79.3 121.8L117.0 85.2M53.6 171.4L47.1 232.0M53.6 171.4L87.2 131.3M47.1 232.0L60.8 295.8M47.1 232.0L75.0 189.5M60.8 295.8L93.1 354.8M60.8 295.8L82.1 253.1M60.8 295.8L108.0 314.8M93.1 354.8L140.2 401.8M93.1 354.8L108.0 314.8M93.1 354.8L149.8 367.3M140.2 401.8L196.6 431.1M140.2 401.8L149.8 367.3M140.2 401.8L203.1 404.5M196.6 431.1L255.8 439.2M196.6 431.1L203.1 404.5M196.6 431.1L262.0 422.1M255.8 439.2L262.0 422.1M255.8 439.2L319.8 417.6M311.0 425.0L319.8 417.6M161.0 56.7L117.0 85.2M161.0 56.7L213.2 44.3M117.0 85.2L87.2 131.3M117.0 85.2L167.1 68.9M87.2 131.3L75.0 189.5M87.2 131.3L135.1 112.9M75.0 189.5L82.1 253.1M75.0 189.5L121.7 170.5M82.1 253.1L108.0 314.8M82.1 253.1L129.1 234.1M108.0 314.8L149.8 367.3M108.0 314.8L156.6 295.1M149.8 367.3L203.1 404.5M149.8 367.3L201.0 345.2M203.1 404.5L262.0 422.1M203.1 404.5L256.6 377.0M262.0 422.1L319.8 417.6M262.0 422.1L256.6 377.0M262.0 422.1L315.8 385.8M319.8 417.6L370.1 391.7M319.8 417.6L315.8 385.8M319.8 417.6L370.4 370.1M370.1 391.7L370.4 370.1M407.1 347.0L412.7 331.6M267.2 42.1L213.2 44.3M267.2 42.1L325.0 61.8M213.2 44.3L167.1 68.9M213.2 44.3L269.8 55.0M167.1 68.9L135.1 112.9M167.1 68.9L221.8 75.5M135.1 112.9L121.7 170.5M135.1 112.9L190.2 119.7M121.7 170.5L129.1 234.1M121.7 170.5L181.8 179.4M129.1 234.1L156.6 295.1M129.1 234.1L181.8 179.4M129.1 234.1L199.2 242.7M156.6 295.1L201.0 345.2M156.6 295.1L199.2 242.7M201.0 345.2L256.6 377.0M201.0 345.2L239.6 296.3M256.6 377.0L315.8 385.8M256.6 377.0L295.0 327.8M315.8 385.8L370.4 370.1M315.8 385.8L353.6 329.4M370.4 370.1L412.7 331.6M370.4 370.1L353.6 329.4M412.7 331.6L436.3 275.8M412.7 331.6L401.5 299.5M436.3 275.8L437.8 211.0M436.3 275.8L426.5 244.9M437.8 211.0L421.6 179.6M416.9 147.1L421.6 179.6M377.1 94.5L325.0 61.8M377.1 94.5L387.8 122.2M325.0 61.8L269.8 55.0M325.0 61.8L335.5 91.2M269.8 55.0L221.8 75.5M269.8 55.0L335.5 91.2M269.8 55.0L282.9 98.0M221.8 75.5L190.2 119.7M221.8 75.5L282.9 98.0M190.2 119.7L181.8 179.4M190.2 119.7L251.0 141.4M181.8 179.4L199.2 242.7M181.8 179.4L251.0 141.4M181.8 179.4L255.3 203.9M199.2 242.7L239.6 296.3M199.2 242.7L255.3 203.9M239.6 296.3L295.0 327.8M239.6 296.3L296.5 255.9M295.0 327.8L353.6 329.4M295.0 327.8L296.5 255.9M353.6 329.4L401.5 299.5M353.6 329.4L354.8 266.6M401.5 299.5L426.5 244.9M401.5 299.5L393.4 225.5M426.5 244.9L421.6 179.6M426.5 244.9L393.4 225.5M421.6 179.6L387.8 122.2M421.6 179.6L380.0 162.0M387.8 122.2L335.5 91.2M387.8 122.2L380.0 162.0M335.5 91.2L282.9 98.0M335.5 91.2L327.7 143.9M282.9 98.0L251.0 141.4M282.9 98.0L327.7 143.9M251.0 141.4L255.3 203.9M251.0 141.4L327.7 143.9M255.3 203.9L296.5 255.9M255.3 203.9L325.1 198.4M296.5 255.9L354.8 266.6M296.5 255.9L325.1 198.4M354.8 266.6L393.4 225.5M354.8 266.6L325.1 198.4M393.4 225.5L380.0 162.0M380.0 162.0L327.7 143.9M327.7 143.9L325.1 198.4" stroke="#FFFFFF" stroke-opacity="0.38" stroke-width="0.9" fill="none"></path>
<path d="M46.8 291.5m-2.00 0a2.00 2.00 0 1 0 4.00 0a2.00 2.00 0 1 0 -4.00 0M74.7 352.4m-2.03 0a2.03 2.03 0 1 0 4.06 0a2.03 2.03 0 1 0 -4.06 0M53.6 171.4m-2.09 0a2.09 2.09 0 1 0 4.19 0a2.09 2.09 0 1 0 -4.19 0M47.1 232.0m-2.21 0a2.21 2.21 0 1 0 4.42 0a2.21 2.21 0 1 0 -4.42 0M60.8 295.8m-2.28 0a2.28 2.28 0 1 0 4.55 0a2.28 2.28 0 1 0 -4.55 0M93.1 354.8m-2.29 0a2.29 2.29 0 1 0 4.58 0a2.29 2.29 0 1 0 -4.58 0M140.2 401.8m-2.25 0a2.25 2.25 0 1 0 4.50 0a2.25 2.25 0 1 0 -4.50 0M196.6 431.1m-2.16 0a2.16 2.16 0 1 0 4.32 0a2.16 2.16 0 1 0 -4.32 0M255.8 439.2m-2.03 0a2.03 2.03 0 1 0 4.07 0a2.03 2.03 0 1 0 -4.07 0M117.0 85.2m-2.12 0a2.12 2.12 0 1 0 4.24 0a2.12 2.12 0 1 0 -4.24 0M87.2 131.3m-2.28 0a2.28 2.28 0 1 0 4.56 0a2.28 2.28 0 1 0 -4.56 0M75.0 189.5m-2.40 0a2.40 2.40 0 1 0 4.81 0a2.40 2.40 0 1 0 -4.81 0M82.1 253.1m-2.49 0a2.49 2.49 0 1 0 4.98 0a2.49 2.49 0 1 0 -4.98 0M108.0 314.8m-2.52 0a2.52 2.52 0 1 0 5.04 0a2.52 2.52 0 1 0 -5.04 0M149.8 367.3m-2.50 0a2.50 2.50 0 1 0 5.00 0a2.50 2.50 0 1 0 -5.00 0M203.1 404.5m-2.43 0a2.43 2.43 0 1 0 4.86 0a2.43 2.43 0 1 0 -4.86 0M262.0 422.1m-2.32 0a2.32 2.32 0 1 0 4.64 0a2.32 2.32 0 1 0 -4.64 0M319.8 417.6m-2.18 0a2.18 2.18 0 1 0 4.36 0a2.18 2.18 0 1 0 -4.36 0M370.1 391.7m-2.04 0a2.04 2.04 0 1 0 4.07 0a2.04 2.04 0 1 0 -4.07 0M213.2 44.3m-2.12 0a2.12 2.12 0 1 0 4.25 0a2.12 2.12 0 1 0 -4.25 0M167.1 68.9m-2.29 0a2.29 2.29 0 1 0 4.59 0a2.29 2.29 0 1 0 -4.59 0M135.1 112.9m-2.45 0a2.45 2.45 0 1 0 4.91 0a2.45 2.45 0 1 0 -4.91 0M121.7 170.5m-2.58 0a2.58 2.58 0 1 0 5.16 0a2.58 2.58 0 1 0 -5.16 0M129.1 234.1m-2.67 0a2.67 2.67 0 1 0 5.33 0a2.67 2.67 0 1 0 -5.33 0M156.6 295.1m-2.69 0a2.69 2.69 0 1 0 5.39 0a2.69 2.69 0 1 0 -5.39 0M201.0 345.2m-2.66 0a2.66 2.66 0 1 0 5.32 0a2.66 2.66 0 1 0 -5.32 0M256.6 377.0m-2.58 0a2.58 2.58 0 1 0 5.16 0a2.58 2.58 0 1 0 -5.16 0M315.8 385.8m-2.46 0a2.46 2.46 0 1 0 4.91 0a2.46 2.46 0 1 0 -4.91 0M370.4 370.1m-2.31 0a2.31 2.31 0 1 0 4.62 0a2.31 2.31 0 1 0 -4.62 0M412.7 331.6m-2.17 0a2.17 2.17 0 1 0 4.34 0a2.17 2.17 0 1 0 -4.34 0M436.3 275.8m-2.05 0a2.05 2.05 0 1 0 4.11 0a2.05 2.05 0 1 0 -4.11 0M377.1 94.5m-2.02 0a2.02 2.02 0 1 0 4.04 0a2.02 2.02 0 1 0 -4.04 0M325.0 61.8m-2.13 0a2.13 2.13 0 1 0 4.26 0a2.13 2.13 0 1 0 -4.26 0M269.8 55.0m-2.28 0a2.28 2.28 0 1 0 4.56 0a2.28 2.28 0 1 0 -4.56 0M221.8 75.5m-2.45 0a2.45 2.45 0 1 0 4.90 0a2.45 2.45 0 1 0 -4.90 0M190.2 119.7m-2.61 0a2.61 2.61 0 1 0 5.21 0a2.61 2.61 0 1 0 -5.21 0M181.8 179.4m-2.73 0a2.73 2.73 0 1 0 5.45 0a2.73 2.73 0 1 0 -5.45 0M199.2 242.7m-2.78 0a2.78 2.78 0 1 0 5.57 0a2.78 2.78 0 1 0 -5.57 0M239.6 296.3m-2.77 0a2.77 2.77 0 1 0 5.54 0a2.77 2.77 0 1 0 -5.54 0M295.0 327.8m-2.68 0a2.68 2.68 0 1 0 5.37 0a2.68 2.68 0 1 0 -5.37 0M353.6 329.4m-2.55 0a2.55 2.55 0 1 0 5.11 0a2.55 2.55 0 1 0 -5.11 0M401.5 299.5m-2.41 0a2.41 2.41 0 1 0 4.82 0a2.41 2.41 0 1 0 -4.82 0M426.5 244.9m-2.29 0a2.29 2.29 0 1 0 4.58 0a2.29 2.29 0 1 0 -4.58 0M421.6 179.6m-2.23 0a2.23 2.23 0 1 0 4.47 0a2.23 2.23 0 1 0 -4.47 0M387.8 122.2m-2.26 0a2.26 2.26 0 1 0 4.52 0a2.26 2.26 0 1 0 -4.52 0M335.5 91.2m-2.37 0a2.37 2.37 0 1 0 4.75 0a2.37 2.37 0 1 0 -4.75 0M282.9 98.0m-2.54 0a2.54 2.54 0 1 0 5.07 0a2.54 2.54 0 1 0 -5.07 0M251.0 141.4m-2.69 0a2.69 2.69 0 1 0 5.39 0a2.69 2.69 0 1 0 -5.39 0M255.3 203.9m-2.78 0a2.78 2.78 0 1 0 5.57 0a2.78 2.78 0 1 0 -5.57 0M296.5 255.9m-2.76 0a2.76 2.76 0 1 0 5.53 0a2.76 2.76 0 1 0 -5.53 0M354.8 266.6m-2.65 0a2.65 2.65 0 1 0 5.29 0a2.65 2.65 0 1 0 -5.29 0M393.4 225.5m-2.51 0a2.51 2.51 0 1 0 5.02 0a2.51 2.51 0 1 0 -5.02 0M380.0 162.0m-2.48 0a2.48 2.48 0 1 0 4.96 0a2.48 2.48 0 1 0 -4.96 0M327.7 143.9m-2.61 0a2.61 2.61 0 1 0 5.22 0a2.61 2.61 0 1 0 -5.22 0M325.1 198.4m-2.70 0a2.70 2.70 0 1 0 5.41 0a2.70 2.70 0 1 0 -5.41 0" fill="#FFFFFF" fill-opacity="0.85"></path>
<path d="M190.2 119.7m-2.61 0a2.61 2.61 0 1 0 5.21 0a2.61 2.61 0 1 0 -5.21 0M327.7 143.9m-2.61 0a2.61 2.61 0 1 0 5.22 0a2.61 2.61 0 1 0 -5.22 0" fill="#F2A43A"></path>
</g>
</svg>